HIERARCHY
ROOT Hips
{
	OFFSET 15.585500 22.159004 44.358299
	CHANNELS 6 Xposition Yposition Zposition Zrotation Xrotation Yrotation
	JOINT Chest
	{
		OFFSET -0.128500 0.160400 6.566002
		CHANNELS 6 Xposition Yposition Zposition Zrotation Xrotation Yrotation
		JOINT Chest2
		{
			OFFSET 0.000000 0.000000 3.554802
			CHANNELS 6 Xposition Yposition Zposition Zrotation Xrotation Yrotation
			JOINT Neck
			{
				OFFSET 0.000000 0.000000 8.267998
				CHANNELS 6 Xposition Yposition Zposition Zrotation Xrotation Yrotation
				JOINT Head
				{
					OFFSET 0.000000 0.000002 2.173897
					CHANNELS 6 Xposition Yposition Zposition Zrotation Xrotation Yrotation
					End Site
					{
						OFFSET 0.000000 0.000000 7.718697
					}
				}
			}
			JOINT LeftCollar
			{
				OFFSET 2.057500 0.117599 5.946301
				CHANNELS 6 Xposition Yposition Zposition Zrotation Xrotation Yrotation
				JOINT LeftShoulder
				{
					OFFSET 4.957699 0.000000 0.000000
					CHANNELS 6 Xposition Yposition Zposition Zrotation Xrotation Yrotation
					JOINT LeftElbow
					{
						OFFSET 0.000000 0.000000 -8.465500
						CHANNELS 6 Xposition Yposition Zposition Zrotation Xrotation Yrotation
						JOINT LeftWrist
						{
							OFFSET 0.000000 -0.000002 -14.594898
							CHANNELS 6 Xposition Yposition Zposition Zrotation Xrotation Yrotation
							End Site
							{
								OFFSET 0.000000 0.000000 -2.173901
							}
						}
					}
				}
			}
			JOINT RightCollar
			{
				OFFSET -3.048500 -0.728800 6.604099
				CHANNELS 6 Xposition Yposition Zposition Zrotation Xrotation Yrotation
				JOINT RightShoulder
				{
					OFFSET -3.710299 0.000000 0.000000
					CHANNELS 6 Xposition Yposition Zposition Zrotation Xrotation Yrotation
					JOINT RightElbow
					{
						OFFSET 0.000000 0.000000 -10.450901
						CHANNELS 6 Xposition Yposition Zposition Zrotation Xrotation Yrotation
						JOINT RightWrist
						{
							OFFSET 0.000000 0.000000 -12.539200
							CHANNELS 6 Xposition Yposition Zposition Zrotation Xrotation Yrotation
							End Site
							{
								OFFSET 0.000000 -0.000002 -2.173901
							}
						}
					}
				}
			}
		}
	}
	JOINT LeftHip
	{
		OFFSET 2.442599 -0.601400 -2.767502
		CHANNELS 6 Xposition Yposition Zposition Zrotation Xrotation Yrotation
		JOINT LeftKnee
		{
			OFFSET 0.000000 -0.000002 -17.033703
			CHANNELS 6 Xposition Yposition Zposition Zrotation Xrotation Yrotation
			JOINT LeftAnkle
			{
				OFFSET 0.000000 -0.000002 -19.318800
				CHANNELS 6 Xposition Yposition Zposition Zrotation Xrotation Yrotation
				End Site
				{
					OFFSET 0.000000 -8.281900 0.000000
				}
			}
		}
	}
	JOINT RightHip
	{
		OFFSET -3.126200 -0.601400 -2.283501
		CHANNELS 6 Xposition Yposition Zposition Zrotation Xrotation Yrotation
		JOINT RightKnee
		{
			OFFSET 0.000000 -0.000002 -16.919401
			CHANNELS 6 Xposition Yposition Zposition Zrotation Xrotation Yrotation
			JOINT RightAnkle
			{
				OFFSET 0.000000 -0.000002 -18.035900
				CHANNELS 6 Xposition Yposition Zposition Zrotation Xrotation Yrotation
				End Site
				{
					OFFSET 0.000000 -9.230099 0.000000
				}
			}
		}
	}
}
MOTION
Frames: 4
Frame Time: 0.041667
23.612600 41.071606 8.069099 3.352529 -12.816813 -1.315629 -0.128498 0.160401 6.566005 -4.327703 17.224590 4.204535 -0.000003 0.000006 3.554801 -1.072203 -12.555830 -1.702315 0.000001 -0.000003 8.267999 1.853168 10.486401 0.797632 -0.000001 0.000002 2.173898 2.384852 -3.693131 -0.215853 2.057504 0.117599 5.946306 -33.351920 13.892782 11.698947 4.957696 -0.000001 0.000002 13.153349 -21.319706 -141.675049 0.000004 0.000008 -8.465502 -93.183076 -169.358666 -167.395465 -0.000003 0.000004 -14.594896 -292.513834 -23.830264 -329.186267 -3.048498 -0.728800 6.604103 39.121773 13.551934 -16.850316 -3.710296 0.000003 -0.000006 6.336896 -23.096232 152.587451 0.000000 -0.000004 -10.450894 -70.513439 -5.397491 -2.702624 0.000002 -0.000001 -12.539201 469.851718 183.604747 -211.904966 2.442593 -0.601400 -2.767502 129.543786 -6.115684 88.076874 0.000001 -0.000002 -17.033709 -183.115473 50.923575 171.577303 -0.000005 0.000002 -19.318802 -143.425175 117.279402 400.635565 -3.126199 -0.601404 -2.283501 -125.954098 -31.068639 -90.169104 -0.000003 -0.000001 -16.919392 367.446583 -67.713334 -178.335174 -0.000000 -0.000001 -18.035892 203.407377 54.065008 -198.604143
23.614201 41.128803 8.029896 3.363661 -13.283272 -1.277823 -0.128500 0.160397 6.566007 -4.354092 17.702285 4.226756 0.000001 0.000002 3.554801 -1.056879 -12.555580 -1.698780 0.000001 0.000002 8.267996 1.820647 10.908932 0.797113 0.000000 0.000000 2.173897 1.961854 -3.374361 0.378912 2.057501 0.117605 5.946305 -34.101065 13.780649 11.414441 4.957691 0.000002 0.000002 14.031643 -21.194823 -140.723180 0.000000 -0.000003 -8.465505 -93.360005 -169.454767 -167.403756 0.000000 -0.000007 -14.594891 -292.784692 -23.679441 -330.063919 -3.048500 -0.728797 6.604101 39.496098 13.728147 -17.209124 -3.710300 0.000004 -0.000006 5.844786 -23.409968 152.133475 0.000003 -0.000002 -10.450895 -70.810361 -5.366135 -2.803121 0.000000 0.000004 -12.539192 469.729485 183.682515 -211.672466 2.442598 -0.601402 -2.767500 129.330793 -6.465632 87.955454 -0.000001 0.000002 -17.033707 -183.198104 51.085413 171.645126 -0.000001 0.000004 -19.318802 -143.571000 117.194476 400.864103 -3.126204 -0.601409 -2.283500 -125.763727 -31.189468 -89.815464 -0.000004 -0.000006 -16.919399 369.118640 -67.664457 -176.944670 -0.000000 0.000001 -18.035894 203.956730 54.036376 -198.737427
23.616001 41.184303 7.991302 3.336724 -13.694869 -1.256632 -0.128501 0.160408 6.566008 -4.343859 18.129672 4.255246 0.000001 0.000009 3.554805 -1.042180 -12.554200 -1.695563 0.000001 -0.000002 8.267998 1.789530 11.325015 0.794984 0.000005 0.000004 2.173899 1.975256 -3.324590 0.261334 2.057505 0.117594 5.946305 -34.100935 13.684432 11.834187 4.957696 0.000002 -0.000003 13.890621 -21.126781 -140.740925 0.000003 0.000004 -8.465508 -93.486876 -169.514941 -167.497863 0.000006 0.000007 -14.594898 -292.615413 -23.568153 -329.956822 -3.048500 -0.728805 6.604098 39.823951 13.869106 -17.560546 -3.710294 -0.000002 -0.000004 5.365701 -23.669259 151.669460 0.000005 0.000001 -10.450893 -71.156863 -5.344867 -2.795416 0.000002 0.000003 -12.539196 469.622005 183.654361 -211.465320 2.442594 -0.601393 -2.767497 129.159492 -6.780808 87.867406 0.000000 -0.000001 -17.033709 -183.277949 51.245885 171.715259 -0.000003 0.000000 -19.318802 -143.720308 117.110027 401.093843 -3.126202 -0.601393 -2.283498 -125.567372 -31.278916 -89.514772 -0.000003 -0.000003 -16.919395 370.746766 -67.600206 -175.609300 0.000000 -0.000001 -18.035896 204.503254 54.005408 -198.882336
23.617901 41.237900 7.953400 3.314280 -14.090510 -1.241732 -0.128497 0.160404 6.566002 -4.339780 18.543890 4.291219 -0.000003 0.000003 3.554808 -1.027940 -12.551015 -1.692424 -0.000002 -0.000000 8.267993 1.759487 11.734902 0.792546 0.000001 0.000003 2.173903 1.993820 -3.027911 0.098466 2.057503 0.117599 5.946302 -34.021490 13.535818 12.265939 4.957693 -0.000002 0.000004 13.710952 -20.971956 -140.820510 -0.000000 0.000011 -8.465504 -93.587594 -169.636040 -167.534828 -0.000001 0.000007 -14.594894 -292.428156 -23.535930 -329.847129 -3.048500 -0.728799 6.604095 40.107684 13.976913 -17.901094 -3.710298 0.000004 -0.000006 4.896762 -23.875997 151.194338 0.000005 0.000002 -10.450890 -71.542591 -5.321347 -2.790244 0.000006 0.000004 -12.539192 469.523760 183.627997 -211.255661 2.442597 -0.601398 -2.767501 128.985800 -7.085539 87.781584 -0.000001 -0.000002 -17.033710 -183.353956 51.403792 171.786648 -0.000002 0.000001 -19.318806 -143.870859 117.027000 401.321671 -3.126199 -0.601398 -2.283496 -125.387698 -31.358635 -89.229919 -0.000005 -0.000006 -16.919392 372.332600 -67.520327 -174.308463 -0.000000 -0.000004 -18.035896 205.022430 53.977752 -199.006017
